<svg width="40" height="20" viewBox="0 0 40 20" fill="none" xmlns="http://www.w3.org/2000/svg">
<path d="M40 10.0002C40 10.4198 39.8022 10.8149 39.4665 11.0667L28.7999 19.0668C28.3959 19.3699 27.8552 19.4186 27.4034 19.1927C26.9516 18.9668 26.6663 18.5052 26.6663 18.0002L26.6663 11.3336L1.3335 11.3336C0.59689 11.3336 7.51592e-07 10.7363 8.1595e-07 10.0001C8.80307e-07 9.26395 0.59689 8.66662 1.3335 8.66662L26.6663 8.66662L26.6663 2.00003C26.6663 1.49511 26.9516 1.03351 27.4034 0.807565C27.8552 0.581666 28.3958 0.630328 28.7999 0.933463L39.4665 8.93355C39.8022 9.18534 40 9.58044 40 10.0001L40 10.0002Z" fill="white"/>
</svg>
